<svg id="Layer_1" data-name="Layer 1" xmlns="http://www.w3.org/2000/svg" viewBox="0 0 500 500"><defs><style>.cls-1{fill:#006d5b;fill-rule:evenodd;}</style></defs><path class="cls-1" d="M478.24,163l-31.51,15.15L323.85,239.36A70,70,0,0,1,339.2,255v0c6.33,9.12,10.27,20.2,10.27,34.09a64.06,64.06,0,0,1-61.82,63.52l-.13,0h-93V304.19L168,317.43V380H288.77a85.07,85.07,0,0,0,33.36-6.88,93.2,93.2,0,0,0,29.13-19.78h0a90,90,0,0,0,19.48-28.93,88.05,88.05,0,0,0,6.75-34A90.46,90.46,0,0,0,375.4,271v0a87.15,87.15,0,0,0-6.15-18.21l-2.41-5.16,5.09-2.53,86.12-42.88,6.82-3.39,1.5,7.47q2.16,10.75,3.25,21.72c.73,7.34,1.1,14.69,1.1,22a220.2,220.2,0,0,1-64.64,156.06h0a220.09,220.09,0,0,1-150.27,64.57c-1.93.05-3.86.08-5.78.08A220.2,220.2,0,0,1,93.93,406.07h0A222.38,222.38,0,0,1,72.5,381.21c-2.5-3.39-4.92-6.86-7.23-10.39L43.92,381.09A244.49,244.49,0,0,0,250,494.2c1.92,0,3.85,0,5.78-.06A244.38,244.38,0,0,0,478.24,163Z"/><path class="cls-1" d="M52.15,348.13l5.5-2.64Q156.79,298,255.79,250.21L279,239c12.08-5.82,23.7-12.59,32.84-21.28,8.84-8.39,15.45-18.72,18-31.93a61.51,61.51,0,0,0,.88-6.15q.28-2.9.28-6.35a63,63,0,0,0-4.87-24.38h0a61.59,61.59,0,0,0-13.88-20.37l-.11-.11a61.42,61.42,0,0,0-20.36-13.9h0a63.13,63.13,0,0,0-24.38-4.89H168V238.87l26.56-11.58v-90h72.28l.26,0a39.29,39.29,0,0,1,26.54,11.78,38.08,38.08,0,0,1,10.88,26.66,37.69,37.69,0,0,1-1.8,11.47,38.19,38.19,0,0,1-5.22,10.38l-.25.31a38.79,38.79,0,0,1-4.95,5.05,40.31,40.31,0,0,1-5.76,4.08l-.4.22-1,.49h0c-.76.37-2.08,1-8.71,4.13h0l-20.62,9.85-30.93,14.77v.09l-3.34,1.58c-58,27.7-115.67,55.2-173.57,83l-6,2.87-2-6.35A220.21,220.21,0,0,1,32,284.33,222.63,222.63,0,0,1,29.28,250,220.16,220.16,0,0,1,93.93,94h0A220.16,220.16,0,0,1,250,29.28c1.92,0,3.85,0,5.78.08A220.09,220.09,0,0,1,406.06,93.93l0,0a221.13,221.13,0,0,1,40.38,55.37l21.19-10.18A244.51,244.51,0,0,0,255.79,5.86c-1.93,0-3.86-.06-5.78-.06A244.3,244.3,0,0,0,31.08,358.33L52.19,348.2Z"/></svg>